# xmcd CD database file
#
# Track frame offsets:
#	150
#	16055
#	32250
#	49114
#	65142
#	80137
#	94615
#	110435
#	125255
#	138137
#	154195
#	169865
#	183540
#	200167
#	217862
#	236675
#	255910
#	273160
#	288240
#	303037
#
# Disc length: 4248 seconds
#
# Revision: 0
# Processed by: cddbd v1.5.2PL0 Copyright (c) Steve Scherf et al.
# Submitted via: CDex 1.70beta2
#
DISCID=0a109614
DTITLE=Jones Country - Jones Country JCY-002
DYEAR=0000
DGENRE=Country
TTITLE0=Kinley's/Just Between You And Me (Album Version)
TTITLE1=Travis Tritt/Ten Feet Tall And Bulletproof
TTITLE2=Tanya Tucker/You Just Watch Me
TTITLE3=Steve Wariner/Heart Trouble
TTITLE4=Steve Wariner/I Got Dreams
TTITLE5=Steve Wariner/Life's Highway
TTITLE6=Dwight Yoakam/Suspicious Minds (Radio Edit)
TTITLE7=Rhett Akins/More Than Everything
TTITLE8=Alabama/Keepin' Up
TTITLE9=Alabama/Fallin' Again
TTITLE10=Sherrie Austin/Lucky In Love
TTITLE11=Blackhawk/Big Guitar
TTITLE12=Blackhawk/Hole In My Heart
TTITLE13=Chad Brock/Evangeline (Album Version)
TTITLE14=Garth Brooks/It's Your Song (Studio Version)
TTITLE15=Garth Brooks/It's Your Song (Live Version)
TTITLE16=Garth Brooks/Red Strokes (Album Version)
TTITLE17=Tracy Byrd/Don't Love Make A Diamond Shine
TTITLE18=Tracy Byrd/Someone To Give My Love To
TTITLE19=Jeff Carson/Shine On
EXTD=YEAR: 0000
EXTT0=
EXTT1=
EXTT2=
EXTT3=
EXTT4=
EXTT5=
EXTT6=
EXTT7=
EXTT8=
EXTT9=
EXTT10=
EXTT11=
EXTT12=
EXTT13=
EXTT14=
EXTT15=
EXTT16=
EXTT17=
EXTT18=
EXTT19=
PLAYORDER=
